# xmcd
#
# Track frame offsets:
#	150
#	17984
#	29361
#	42360
#	61203
#	77500
#	90507
#
# Disc length: 1482 seconds
# Revision: 0
# Processed by: cddbd v1.5.2PL0 Copyright (c) Steve Scherf et al.
# Submitted via: dBpowerAMP V12.0
#
DISCID=4b05c807
DTITLE=Dave Power - Looking Life in the Eye
DYEAR=2013
DGENRE=Pop Rock
TTITLE0=Burning Love
TTITLE1=A Better Day
TTITLE2=Love Made a Fool Out of You
TTITLE3=Here with You
TTITLE4=Singing Your Favorite Songs
TTITLE5=Hey Little Boy
TTITLE6=Look Life in the Eye
EXTD=
EXTT0=
EXTT1=
EXTT2=
EXTT3=
EXTT4=
EXTT5=
EXTT6=
PLAYORDER=
